<svg xmlns="http://www.w3.org/2000/svg" version="1.1" viewBox="-125 20 450 100"><defs><marker id="lineend" markerHeight="3" markerWidth="1" orient="auto" refX="1" refY="1.5" viewBox="0 0 1 3"><rect width="1" height="3" x="0" y="0" fill="#000"/></marker><marker id="linestart" markerHeight="3" markerWidth="1" orient="auto" refX="0" refY="1.5" viewBox="0 0 1 3"><rect width="1" height="3" x="0" y="0" fill="#000"/></marker><marker id="arrow" markerHeight="4" markerWidth="3" orient="auto" refX="1" refY="1.5" viewBox="0 0 2 3"><path d="M 0 0.5 l 0.5 -0.5 l 1.5 1.5 l -1.5 1.5 l -0.5 -0.5 l 1 -1 z" style="fill:#000" stroke-linecap="butt"/></marker></defs><line x1="200" x2="250" y1="50" y2="37.5" style="stroke:#000;stroke-width:2" stroke-dasharray="3 3"/><circle cx="200" cy="50" r="3" fill="green"/><line x1="150" x2="200" y1="62.5" y2="50" style="stroke:#000;stroke-width:2"/><path fill="#FF8080" stroke="none" d="M 150 100 L 100 50 L 200 25 z" opacity=".75"/><circle cx="150" cy="62.5" r="3" fill="red"/><line x1="100" x2="150" y1="75" y2="62.5" style="stroke:#000;stroke-width:2"/><circle cx="100" cy="75" r="3" fill="#00F"/><line x1="50" x2="100" y1="87.5" y2="75" style="stroke:#000;stroke-width:2" stroke-dasharray="3 3"/><path d="M 0 100 l 25 -6.125 l 25 -6.125" style="stroke:#000;stroke-width:2" marker-end="url(#lineend)" marker-mid="url(#arrow)" marker-start="url(#linestart)"/><line x1="-50" x2="0" y1="112.5" y2="100" style="stroke:#000;stroke-width:2" stroke-dasharray="3 3"/><text x="-3.75" y="93" style="font-style:normal;font-weight:700;font-size:11px;font-family:serif">o</text><text x="20" y="86.875" style="font-style:normal;font-weight:700;font-size:11px;font-family:serif">d</text><text x="82.5" y="90" style="font-style:normal;font-weight:700;font-size:11px;font-family:serif">o</text><text x="90" y="91" style="font-style:italic;font-weight:400;font-size:11px;font-family:serif">+</text><text x="100" y="90" style="font-style:italic;font-weight:400;font-size:11px;font-family:serif">t</text><text x="104" y="92" style="font-style:italic;font-weight:400;font-size:6px;font-family:serif">min</text><text x="115" y="90" style="font-style:normal;font-weight:700;font-size:11px;font-family:serif">d</text><text x="134.5" y="55" style="font-style:normal;font-weight:700;font-size:11px;font-family:serif">o</text><text x="141" y="56" style="font-style:italic;font-weight:400;font-size:11px;font-family:serif">+</text><text x="150" y="55" style="font-style:italic;font-weight:400;font-size:11px;font-family:serif">t</text><text x="155" y="55" style="font-style:normal;font-weight:700;font-size:11px;font-family:serif">d</text><text x="182.5" y="65" style="font-style:normal;font-weight:700;font-size:11px;font-family:serif">o</text><text x="190" y="66" style="font-style:italic;font-weight:400;font-size:11px;font-family:serif">+</text><text x="200" y="65" style="font-style:italic;font-weight:400;font-size:11px;font-family:serif">t</text><text x="204" y="67" style="font-style:italic;font-weight:400;font-size:6px;font-family:serif">max</text><text x="216" y="65" style="font-style:normal;font-weight:700;font-size:11px;font-family:serif">d</text></svg>